<?xml version="1.0" standalone="no"?>
<!DOCTYPE svg PUBLIC "-//W3C//DTD SVG 20010904//EN"
 "http://www.w3.org/TR/2001/REC-SVG-20010904/DTD/svg10.dtd">
<svg version="1.0" xmlns="http://www.w3.org/2000/svg"
 width="736.000000pt" height="736.000000pt" viewBox="0 0 736.000000 736.000000"
 preserveAspectRatio="xMidYMid meet">

<g transform="translate(0.000000,736.000000) scale(0.100000,-0.100000)"
fill="#000000" stroke="none">
<path d="M2211 5373 c-67 -33 -106 -135 -89 -231 7 -38 67 -156 75 -148 2 2
-9 29 -23 62 -33 73 -38 171 -11 222 36 66 121 91 189 56 43 -22 123 -99 225
-216 85 -98 143 -139 194 -137 l24 0 -25 10 c-36 15 -62 41 -165 169 -105 131
-160 184 -219 211 -51 23 -130 24 -175 2z"/>
<path d="M2734 5200 c27 -11 62 -32 78 -47 32 -30 78 -120 78 -152 0 -11 5
-23 10 -26 13 -8 13 49 -1 98 -20 75 -111 147 -184 146 -27 0 -25 -2 19 -19z"/>
<path d="M2575 4970 c-29 -32 -24 -79 11 -107 38 -30 91 -30 182 2 86 30 107
31 149 5 76 -46 80 -103 10 -145 -55 -32 -101 -32 -177 0 -79 33 -117 32 -168
-5 -50 -36 -56 -50 -8 -21 46 29 66 27 148 -16 91 -48 165 -52 242 -13 63 31
87 64 88 118 0 49 -20 85 -64 112 -54 33 -95 33 -193 4 -120 -36 -171 -41
-196 -19 -25 24 -24 53 3 82 16 18 18 23 6 23 -8 0 -23 -9 -33 -20z"/>
<path d="M2243 4915 c2 -90 -15 -137 -109 -309 -42 -77 -78 -154 -81 -173 -7
-41 14 -75 57 -93 22 -9 29 -17 25 -29 -4 -9 -9 -22 -12 -28 -4 -9 6 -13 31
-13 35 0 47 12 26 25 -22 14 -8 25 31 25 22 0 72 5 110 11 81 12 110 5 155
-42 32 -34 59 -37 74 -10 14 28 13 41 -6 41 -8 0 -32 13 -52 30 -51 40 -80 44
-208 27 -124 -18 -153 -15 -190 20 l-26 24 24 24 c38 38 128 207 155 293 26
79 27 163 5 222 -8 19 -10 10 -9 -45z"/>
<path d="M2665 4646 c-35 -54 -58 -132 -62 -221 -4 -72 -3 -93 9 -103 26 -21
35 5 47 134 6 67 18 138 26 157 8 20 15 41 15 47 0 18 -19 11 -35 -14z"/>
<path d="M3430 4604 c-185 -36 -339 -163 -428 -354 -48 -102 -55 -198 -20
-250 72 -107 233 -31 330 155 49 95 62 145 43 164 -17 17 -21 10 -28 -58 -13
-107 -133 -272 -210 -286 -49 -9 -67 -4 -90 27 -43 57 -12 181 79 315 91 135
195 218 310 248 110 28 191 15 246 -42 l33 -34 -23 -37 c-12 -20 -56 -104 -98
-187 -196 -385 -294 -505 -417 -505 -38 0 -40 2 -51 52 -10 43 -68 111 -116
136 -98 50 -209 -3 -315 -153 -59 -83 -120 -210 -156 -330 -17 -55 -44 -143
-61 -197 -89 -290 -350 -482 -575 -424 -169 43 -323 157 -475 353 -75 97 -103
118 -47 36 150 -219 260 -335 376 -396 103 -53 172 -70 269 -65 122 6 211 52
324 167 100 102 157 196 195 326 107 366 173 525 251 600 48 47 114 71 164 60
44 -10 100 -69 138 -145 18 -35 32 -56 32 -48 0 12 10 14 49 10 91 -8 195 58
293 187 54 71 205 370 235 463 10 32 21 58 25 58 14 0 19 -108 8 -170 -26
-149 -106 -338 -185 -435 -42 -50 -49 -75 -25 -75 18 0 89 106 154 228 110
206 237 378 346 467 30 25 57 45 60 45 3 0 -23 -29 -57 -65 -112 -118 -242
-373 -265 -523 -38 -244 100 -373 344 -321 65 14 130 47 183 93 32 27 37 37
28 47 -10 10 -23 2 -65 -38 -110 -103 -283 -124 -371 -45 -74 67 -82 201 -23
377 37 110 119 277 178 364 78 112 192 189 264 178 20 -4 32 -2 29 4 -10 15
-111 10 -157 -8 -128 -49 -258 -171 -381 -355 -39 -59 -73 -106 -74 -104 -1 1
6 34 17 72 59 203 23 332 -110 399 -34 18 -133 28 -180 19z"/>
<path d="M1310 4526 c0 -43 -10 -105 -26 -165 -35 -127 -36 -213 -2 -278 13
-26 31 -49 40 -51 13 -2 11 6 -8 44 -27 53 -33 150 -13 214 24 80 37 195 28
244 -13 71 -19 69 -19 -8z"/>
<path d="M1220 4483 c0 -33 -10 -68 -31 -113 -26 -55 -30 -74 -26 -120 5 -67
24 -117 38 -103 6 6 6 33 -2 79 -11 66 -10 73 15 131 27 64 35 156 16 168 -6
4 -10 -12 -10 -42z"/>
<path d="M5269 4373 c-23 -43 -78 -143 -122 -223 -44 -80 -91 -164 -104 -187
l-25 -43 31 0 c28 0 34 6 65 68 69 137 182 262 236 262 19 0 30 -5 30 -14 0
-8 -29 -59 -65 -113 -36 -54 -68 -108 -71 -119 -10 -38 0 -68 27 -83 36 -20
96 -2 144 43 30 28 35 30 35 14 0 -32 18 -56 48 -63 38 -8 71 6 110 46 30 30
32 31 32 11 0 -30 35 -62 68 -62 33 0 78 29 101 64 l17 26 12 -34 c35 -97 183
-56 257 71 24 42 36 53 64 58 35 7 109 70 97 82 -4 4 -13 -3 -22 -15 -17 -24
-64 -52 -88 -52 -12 0 -13 5 -4 31 14 39 -4 102 -34 123 -22 16 -22 16 19 54
66 60 69 124 7 130 -65 6 -138 -74 -226 -248 -29 -58 -63 -128 -75 -156 -37
-84 -102 -133 -138 -104 -25 21 -18 47 55 191 39 76 70 140 70 142 0 2 -13 2
-28 -1 -25 -3 -37 -20 -101 -142 -65 -126 -121 -200 -151 -200 -60 0 -52 48
31 207 l71 135 -28 -4 c-24 -2 -36 -16 -74 -84 -65 -116 -130 -205 -169 -231
-40 -27 -54 -28 -75 -7 -14 14 -14 19 4 55 12 22 41 70 66 107 50 74 59 100
50 137 -13 51 -83 39 -155 -29 l-33 -31 42 80 c24 44 53 99 66 122 30 52 30
63 0 63 -20 0 -32 -14 -67 -77z m896 47 c13 -42 -50 -113 -124 -138 -19 -7
-35 -12 -37 -12 -9 0 90 151 104 160 27 15 50 12 57 -10z m-81 -166 c27 -27
18 -134 -12 -134 -49 0 -72 90 -32 130 24 24 24 24 44 4z m-81 -39 c-5 -32 12
-95 26 -95 3 0 14 -7 25 -15 17 -13 17 -16 -13 -69 -35 -61 -82 -106 -111
-106 -33 0 -53 30 -46 69 6 39 105 251 117 251 4 0 5 -16 2 -35z"/>
<path d="M1385 4374 c-47 -51 -45 -108 8 -238 39 -96 48 -77 13 26 -27 77 -33
137 -17 154 6 5 17 26 26 47 18 44 5 49 -30 11z"/>
<path d="M2314 4286 c-18 -14 -15 -17 49 -45 80 -36 77 -35 77 -16 0 8 -6 15
-14 15 -8 0 -24 14 -36 30 -23 33 -46 38 -76 16z"/>
<path d="M4085 4256 c-77 -47 -155 -173 -155 -253 0 -34 5 -46 31 -67 58 -49
149 -27 222 53 41 45 73 101 58 101 -6 0 -17 -13 -26 -30 -42 -82 -131 -142
-183 -124 -42 15 -58 53 -44 102 11 37 15 40 59 46 90 12 156 69 156 135 0 63
-49 78 -118 37z m91 -21 c9 -22 -15 -72 -44 -95 -27 -22 -99 -47 -108 -37 -6
6 45 86 79 125 23 25 65 29 73 7z"/>
<path d="M4505 4263 c-16 -8 -43 -27 -59 -42 l-30 -26 22 38 21 37 -29 0 c-26
0 -34 -10 -96 -122 -37 -68 -80 -147 -96 -175 l-30 -53 29 0 c25 0 33 9 71 81
88 161 227 300 248 245 7 -19 -6 -43 -79 -144 -50 -69 -61 -91 -61 -125 -1
-36 3 -43 27 -55 45 -22 95 -7 144 42 l42 42 3 -29 c7 -70 87 -84 153 -26 l33
29 6 -25 c12 -48 79 -55 137 -14 31 22 104 127 95 136 -3 4 -7 4 -9 2 -81
-126 -124 -162 -165 -140 -12 6 -22 20 -22 31 0 11 32 81 70 157 66 129 69
138 49 141 -12 2 -25 0 -30 -5 -5 -5 -44 -74 -87 -153 -65 -120 -85 -148 -114
-165 -30 -16 -39 -17 -52 -6 -28 23 -18 59 55 197 69 131 70 134 45 134 -20 0
-33 -15 -77 -87 -61 -102 -113 -179 -142 -210 -28 -31 -83 -49 -102 -33 -23
19 -19 34 38 117 69 100 87 135 87 171 0 52 -37 66 -95 35z"/>
<path d="M2618 4194 c24 -16 29 -53 11 -86 -6 -11 -8 -22 -6 -25 3 -3 13 9 21
26 29 55 16 101 -28 101 -20 0 -20 -1 2 -16z"/>
<path d="M1257 4002 c-45 -49 4 -114 58 -78 30 20 33 56 7 79 -24 22 -45 21
-65 -1z"/>
<path d="M1977 3990 c-41 -36 -52 -37 -68 -9 -9 17 -13 19 -20 8 -23 -37 5
-89 49 -89 11 0 30 12 42 28 11 15 30 38 40 52 l20 25 25 -28 c28 -31 34 -20
9 18 -22 34 -56 32 -97 -5z"/>
<path d="M2115 3944 c-26 -13 -26 -14 -5 -9 78 18 76 18 98 -12 70 -93 91
-116 130 -134 52 -26 103 -21 138 12 41 38 32 49 -33 43 -54 -6 -61 -4 -98 25
-22 17 -58 44 -79 61 -44 34 -99 39 -151 14z"/>
<path d="M1225 3873 c-177 -25 -341 -122 -391 -233 -18 -39 -21 -41 -54 -36
-19 3 -46 8 -60 12 -18 5 -22 4 -15 -5 16 -17 158 -50 248 -57 l82 -7 60 -62
c77 -80 126 -105 205 -105 34 0 74 6 89 14 32 17 84 73 105 114 14 28 18 29
158 46 85 11 154 24 170 34 65 38 25 40 -199 12 -207 -27 -649 -29 -771 -4
-22 4 -21 6 17 57 51 66 100 105 170 134 100 40 191 55 314 52 108 -4 115 -6
197 -46 47 -22 110 -62 140 -87 53 -45 79 -54 87 -29 5 15 -94 93 -167 132
-99 53 -170 71 -267 70 -48 -1 -101 -4 -118 -6z m254 -349 c9 -9 -64 -75 -107
-95 -51 -25 -127 -22 -183 7 -37 19 -119 83 -119 93 0 7 402 2 409 -5z"/>
<path d="M2062 3707 c-18 -18 -37 -48 -42 -67 -15 -53 4 -67 105 -72 79 -4 86
-7 137 -44 68 -52 86 -58 113 -40 30 20 85 104 85 131 0 38 -19 45 -116 45
-90 0 -93 1 -152 40 -33 22 -68 40 -79 40 -10 0 -34 -15 -51 -33z"/>
<path d="M2117 3412 c-10 -10 -17 -28 -17 -40 0 -28 34 -62 60 -62 27 0 60 35
60 63 0 50 -70 76 -103 39z"/>
<path d="M2030 3210 c-35 -35 -19 -70 32 -70 48 0 60 57 17 80 -24 13 -26 13
-49 -10z"/>
<path d="M1910 3050 c0 -16 5 -21 23 -18 12 2 22 10 22 18 0 8 -10 16 -22 18
-18 3 -23 -2 -23 -18z"/>
</g>
</svg>
